:version 1.10
:name ASF
:units
  mass 1
  length 1
  angle deg
:documentation
  ASF file generated by Kaydara
:root
  axis xyz
  order  tx ty tz rx ry rz
  position 0 0 0
  orientation 0 0 0
:bonedata
  begin
    id 1
    name RightUpLegDummy
    direction -0.718183 -0.695806 0.00816078
    length 4.904
    axis 0 0 0 xyz
  end
  begin
    id 2
    name RightUpLeg
    direction 3.53373e-006 -0.995788 0.0916898
    length 17.4976
    axis -3.49089 -0.000906625 0.000286804 xyz
    dof rx ry rz
  end
  begin
    id 3
    name RightLeg
    direction 0.00371092 -0.995096 -0.0988419
    length 16.5821
    axis 3.68512 0.0193738 -0.131023 xyz
    dof rx ry rz
  end
  begin
    id 4
    name RightFoot
    direction 0.00079151 -0.46099 0.887405
    length 3.77069
    axis 4.81691e-005 -0.120479 -0.188788 xyz
    dof rx ry rz
  end
  begin
    id 5
    name RightToes
    direction 0 0 0
    length 0
    axis 0 0 0 xyz
    dof rx ry rz
  end
  begin
    id 6
    name SpineDummy
    direction 8.3039e-015 1 4.57515e-016
    length 4.6813
    axis 0 0 0 xyz
  end
  begin
    id 7
    name Spine
    direction -3.15643e-008 0.999988 0.00495137
    length 10.1015
    axis -0.001389 0.000121418 2.40972e-006 xyz
    dof rx ry rz
  end
  begin
    id 8
    name Spine1
    direction 0 0 0
    length 0
    axis -0.001389 0.000121451 1.30017e-006 xyz
    dof rx ry rz
  end
  begin
    id 9
    name HEadDummy
    direction -1.99912e-008 0.999999 0.00127422
    length 3.43865
    axis -0.001389 0.000121451 1.30017e-006 xyz
  end
  begin
    id 10
    name HEad
    direction 0 0 0
    length 0
    axis 0 0 0 xyz
    dof rx ry rz
  end
  begin
    id 11
    name LeftShoulder1Dummy
    direction 0.998891 -0.0402509 -0.0244456
    length 3.5433
    axis -0.001389 0.000121451 1.30017e-006 xyz
  end
  begin
    id 12
    name LeftShoulder1
    direction 0.99951 -0.000327763 0.0313091
    length 4.05031
    axis -0.001389 0.000121451 1.30017e-006 xyz
    dof rx ry rz
  end
  begin
    id 13
    name LeftArm
    direction 0.998561 -0.00100056 -0.0536182
    length 10.3537
    axis -23.1894 0.134784 0.967509 xyz
    dof rx ry rz
  end
  begin
    id 14
    name LeftForeArm
    direction 0.998903 0.00866432 0.046012
    length 8.70632
    axis -9.91835 -0.06569 -0.177794 xyz
    dof rx ry rz
  end
  begin
    id 15
    name LeftHand
    direction 0 0 0
    length 0
    axis 0 0 0 xyz
    dof rx ry rz
  end
  begin
    id 16
    name RightShoulderDummy
    direction -0.998891 -0.0402509 -0.0244414
    length 3.5433
    axis -0.001389 0.000121451 1.30017e-006 xyz
  end
  begin
    id 17
    name RightShoulder
    direction -0.99951 -0.000327807 0.0313133
    length 4.05031
    axis 0.215806 0.000203643 -0.0068026 xyz
    dof rx ry rz
  end
  begin
    id 18
    name RightArm
    direction -0.998573 -0.000999564 -0.053403
    length 10.3947
    axis -23.2009 -0.134239 -0.964101 xyz
    dof rx ry rz
  end
  begin
    id 19
    name RightForeArm
    direction -0.998898 0.00868028 0.0461306
    length 8.68355
    axis -9.92322 0.0658061 0.178868 xyz
    dof rx ry rz
  end
  begin
    id 20
    name RightHand
    direction 0 0 0
    length 0
    axis 0 0 0 xyz
    dof rx ry rz
  end
  begin
    id 21
    name LeftUpLegDummy
    direction 0.718183 -0.695806 0.00816078
    length 4.904
    axis 0 0 0 xyz
  end
  begin
    id 22
    name LeftUpLeg
    direction -6.81752e-006 -0.995793 0.0916337
    length 17.4976
    axis -3.48766 0.00143442 -0.000524262 xyz
    dof rx ry rz
  end
  begin
    id 23
    name LeftLeg
    direction -0.00601358 -0.995091 -0.0987824
    length 16.5821
    axis 3.68178 -0.00654042 -0.000285133 xyz
    dof rx ry rz
  end
  begin
    id 24
    name LeftFoot
    direction -0.00417578 -0.460984 0.887399
    length 3.77069
    axis 1.87233e-006 4.66016e-005 -8.6538e-006 xyz
    dof rx ry rz
  end
  begin
    id 25
    name LeftToes
    direction 0 0 0
    length 0
    axis 0 0 0 xyz
    dof rx ry rz
  end
:hierarchy
  begin
    root RightUpLegDummy SpineDummy LeftUpLegDummy
    RightUpLegDummy RightUpLeg
    RightUpLeg RightLeg
    RightLeg RightFoot
    RightFoot RightToes
    SpineDummy Spine
    Spine Spine1
    Spine1 HEadDummy LeftShoulder1Dummy RightShoulderDummy
    HEadDummy HEad
    LeftShoulder1Dummy LeftShoulder1
    LeftShoulder1 LeftArm
    LeftArm LeftForeArm
    LeftForeArm LeftHand
    RightShoulderDummy RightShoulder
    RightShoulder RightArm
    RightArm RightForeArm
    RightForeArm RightHand
    LeftUpLegDummy LeftUpLeg
    LeftUpLeg LeftLeg
    LeftLeg LeftFoot
    LeftFoot LeftToes
  end

:SAMPLES-PER-SECOND 30
:FULLY-SPECIFIED
:DEGREES
300
root  13.6293 40.7256 7.90948 33.1635 86.0269 34.7795
RightUpLeg  -3.01294 -10.9222 -10.1417
RightLeg  8.39651 -2.67021 2.02214
RightFoot  -0.435307 -0.156728 1.61266
RightToes  0.000481921 0.542163 -0.142578
Spine  6.39441 -2.64506 -3.87248
Spine1  1.19234 -4.34415 7.36661
HEad  20.4365 10.8021 -2.79704
LeftShoulder1  6.37271 -11.8465 -35.4479
LeftArm  -21.9332 24.2225 -36.005
LeftForeArm  -177.639 -38.2985 -172.572
LeftHand  -0.25398 0.0180481 5.50724
RightShoulder  3.20748 5.48075 29.725
RightArm  9.06893 -4.46804 40.1055
RightForeArm  161.625 56.9531 163.957
RightHand  -0.614477 0.693511 -11.813
LeftUpLeg  1.94277 5.86109 3.41478
LeftLeg  1.60347 21.2778 -4.04622
LeftFoot  0.333214 0.217579 -2.14824
LeftToes  1.06247e-005 4.65869e-005 -8.65511e-006
301
root  13.6044 40.7404 8.01151 44.9569 86.874 46.2415
RightUpLeg  -3.00315 -10.9028 -10.0767
RightLeg  8.15213 -3.82471 2.07359
RightFoot  -0.524046 -0.161365 1.70329
RightToes  0.000481921 0.542163 -0.142578
Spine  6.15862 -2.77268 -5.05235
Spine1  0.917374 -4.67994 8.41402
HEad  20.6401 10.6111 -3.01473
LeftShoulder1  6.35064 -11.915 -35.1221
LeftArm  -21.8048 23.3155 -34.7677
LeftForeArm  -179.601 -39.5926 -172.106
LeftHand  -0.25398 0.0180481 5.50724
RightShoulder  3.27998 5.52997 30.3428
RightArm  8.8406 -4.52996 40.1467
RightForeArm  162.327 56.8338 164.084
RightHand  -0.597355 0.493496 -11.8566
LeftUpLeg  1.63649 5.70815 3.46231
LeftLeg  1.05987 20.3776 -4.12676
LeftFoot  0.753772 0.236876 -2.27957
LeftToes  1.06247e-005 4.65869e-005 -8.65511e-006
302
root  13.5624 40.7414 8.086 56.2126 87.3428 57.3257
RightUpLeg  -3.02521 -10.8709 -9.99692
RightLeg  8.07664 -4.60656 2.08692
RightFoot  -0.652994 -0.170826 1.84968
RightToes  0.000481921 0.542163 -0.142578
Spine  6.07064 -2.73128 -5.49597
Spine1  1.05109 -4.67204 8.51993
HEad  20.0532 10.2594 -2.72591
LeftShoulder1  6.39793 -12.0528 -35.0627
LeftArm  -21.1761 22.9739 -34.0534
LeftForeArm  179.469 -40.6699 -171.748
LeftHand  -0.25398 0.0180481 5.50724
RightShoulder  3.36029 5.63706 30.8027
RightArm  8.36351 -5.43051 40.8637
RightForeArm  162.079 56.6544 164.165
RightHand  -0.587416 0.266146 -12.0979
LeftUpLeg  1.29113 5.68636 3.55405
LeftLeg  1.03232 19.6999 -4.11356
LeftFoot  0.931995 0.2434 -2.31564
LeftToes  1.06247e-005 4.65869e-005 -8.65511e-006
303
root  13.5077 40.7308 8.12708 63.1859 87.5458 64.3369
RightUpLeg  -3.06192 -11.0168 -9.96819
RightLeg  8.27211 -4.83434 2.10887
RightFoot  -0.798075 -0.172818 1.86527
RightToes  0.000481921 0.542163 -0.142578
Spine  6.39016 -2.53978 -5.55315
Spine1  1.11372 -4.4368 8.22647
HEad  19.1283 9.65424 -2.28276
LeftShoulder1  6.39479 -12.0836 -34.9629
LeftArm  -20.6719 23.1946 -34.7575
LeftForeArm  179.895 -41.1766 -171.627
LeftHand  -0.25398 0.0180481 5.50724
RightShoulder  3.42728 5.77216 30.9919
RightArm  8.04528 -6.81367 41.821
RightForeArm  161.241 56.7368 164.048
RightHand  -0.630059 0.489692 -12.5029
LeftUpLeg  0.991236 5.75183 3.64932
LeftLeg  1.45763 19.265 -4.00319
LeftFoot  0.89467 0.242075 -2.29448
LeftToes  1.06247e-005 4.65869e-005 -8.65511e-006
304
root  13.475 40.7225 8.13671 60.0886 87.4372 61.3784
RightUpLeg  -3.13114 -11.1279 -9.96919
RightLeg  8.526 -4.5465 2.08592
RightFoot  -0.857122 -0.16687 1.74694
RightToes  0.000481921 0.542163 -0.142578
Spine  6.79821 -2.23235 -5.21704
Spine1  1.10803 -3.99441 7.56212
HEad  18.3684 9.1903 -2.18158
LeftShoulder1  6.45506 -11.9831 -35.6051
LeftArm  -19.7842 23.8602 -35.2156
LeftForeArm  -179.564 -41.2422 -171.64
LeftHand  -0.25398 0.0180481 5.50724
RightShoulder  3.47578 5.86306 31.1531
RightArm  8.19469 -8.16317 42.5833
RightForeArm  161.074 57.0523 163.853
RightHand  -0.6822 0.882202 -12.7282
LeftUpLeg  0.975264 5.83776 3.68735
LeftLeg  1.75942 19.3446 -3.97051
LeftFoot  0.801612 0.239477 -2.28334
LeftToes  1.06247e-005 4.65869e-005 -8.65511e-006
305
root  13.4773 40.7195 8.12064 49.0292 87.0443 50.4956
RightUpLeg  -3.15466 -10.997 -9.9301
RightLeg  8.61967 -4.00692 2.00608
RightFoot  -0.805646 -0.164298 1.67445
RightToes  0.000481921 0.542163 -0.142578
Spine  6.98227 -1.83889 -4.48064
Spine1  1.28106 -3.38157 6.55917
HEad  17.9355 9.00624 -2.39195
LeftShoulder1  6.57791 -11.7354 -37.0489
LeftArm  -18.5577 24.4839 -34.7179
LeftForeArm  -179.703 -41.4619 -171.567
LeftHand  -0.25398 0.0180481 5.50724
RightShoulder  3.49234 5.85609 31.3593
RightArm  8.76143 -9.18388 42.9766
RightForeArm  161.827 57.2876 163.78
RightHand  -0.675793 0.910779 -12.5531
LeftUpLeg  1.25236 5.9639 3.72868
LeftLeg  1.82248 19.855 -4.0474
LeftFoot  0.654375 0.237938 -2.30119
LeftToes  1.06247e-005 4.65869e-005 -8.65511e-006
